<svg width="31" height="31" viewBox="0 0 31 31" fill="none" xmlns="http://www.w3.org/2000/svg">
<g clip-path="url(#clip0_208_189)">
<path fill-rule="evenodd" clip-rule="evenodd" d="M15.5752 2.68668C15.3942 2.60912 15.1978 2.57399 15.0012 2.58396C14.8045 2.59394 14.6127 2.64876 14.4404 2.74424C14.2681 2.83971 14.12 2.97331 14.0073 3.13482C13.8946 3.29633 13.8203 3.48148 13.7902 3.6761C13.7558 3.97093 13.6608 4.25546 13.5112 4.51181C13.382 4.72493 13.1882 4.94322 12.8472 5.26097C12.1756 5.88356 11.7661 6.62885 11.6563 7.43226C11.5606 8.17166 11.7084 8.92212 12.0774 9.56997C12.7129 10.7157 14.002 11.625 15.375 11.625C17.1601 11.625 19.3753 10.3773 19.3753 8.0006C19.3753 6.78256 18.8302 5.63814 18.1534 4.75593C17.4714 3.86855 16.5479 3.10389 15.5752 2.68797V2.68668ZM11.6253 12.9167C10.9402 12.9167 10.2831 13.1889 9.79863 13.6733C9.31416 14.1578 9.04199 14.8149 9.04199 15.5V25.8333C9.04199 26.5185 9.31416 27.1756 9.79863 27.66C10.2831 28.1445 10.9402 28.4167 11.6253 28.4167H19.3753C20.0605 28.4167 20.7175 28.1445 21.202 27.66C21.6865 27.1756 21.9587 26.5185 21.9587 25.8333V15.5C21.9587 14.8149 21.6865 14.1578 21.202 13.6733C20.7175 13.1889 20.0605 12.9167 19.3753 12.9167H11.6253Z" fill="#0A1944"/>
</g>
<defs>
<clipPath id="clip0_208_189">
<rect width="31" height="31" fill="white"/>
</clipPath>
</defs>
</svg>
