<svg width="174" height="52" viewBox="0 0 174 52" fill="none" xmlns="http://www.w3.org/2000/svg">
<path d="M17.375 32.2109C16.3594 33.7109 15.2344 34.8672 14 35.6797C12.7656 36.5078 11.4141 36.9219 9.94531 36.9219C8.46094 36.9219 7.14062 36.5625 5.98438 35.8438C4.82812 35.1406 3.85156 34.1406 3.05469 32.8438C2.27344 31.5312 1.67188 29.9609 1.25 28.1328C0.84375 26.2891 0.640625 24.2422 0.640625 21.9922C0.640625 20.3984 0.804688 18.7656 1.13281 17.0938C1.46094 15.4219 1.9375 13.8047 2.5625 12.2422C3.20312 10.6641 3.97656 9.17969 4.88281 7.78906C5.78906 6.38281 6.82031 5.16406 7.97656 4.13281C9.13281 3.08594 10.4062 2.25781 11.7969 1.64844C13.1875 1.03906 14.6797 0.734375 16.2734 0.734375C17.1328 0.734375 17.9375 0.875 18.6875 1.15625C19.4375 1.42187 20.0781 1.8125 20.6094 2.32812C21.1562 2.84375 21.5859 3.46875 21.8984 4.20312C22.2109 4.9375 22.3672 5.76563 22.3672 6.6875C22.3672 7.5625 22.2188 8.40625 21.9219 9.21875C21.625 10.0312 21.2188 10.7969 20.7031 11.5156C20.2031 12.2344 19.6172 12.8906 18.9453 13.4844C18.2734 14.0781 17.5703 14.5938 16.8359 15.0312C16.1016 15.4531 15.3516 15.7812 14.5859 16.0156C13.8203 16.25 13.0859 16.3672 12.3828 16.3672C11.8047 16.3672 11.3047 16.1875 10.8828 15.8281C10.4766 15.4531 10.2734 14.8672 10.2734 14.0703C10.2734 13.8984 10.2812 13.7109 10.2969 13.5078C10.3281 13.3047 10.3672 13.1172 10.4141 12.9453C10.4609 12.7734 10.5156 12.6328 10.5781 12.5234C10.6406 12.3984 10.7188 12.3359 10.8125 12.3359C10.8906 12.3359 10.9609 12.3672 11.0234 12.4297C11.1016 12.4766 11.1953 12.5312 11.3047 12.5938C11.4297 12.6406 11.5938 12.6953 11.7969 12.7578C12 12.8047 12.2812 12.8281 12.6406 12.8281C13.25 12.8281 13.8984 12.6641 14.5859 12.3359C15.2891 12.0078 15.9375 11.5703 16.5312 11.0234C17.125 10.4766 17.6172 9.85156 18.0078 9.14844C18.3984 8.42969 18.5938 7.6875 18.5938 6.92188C18.5938 6.64062 18.5391 6.34375 18.4297 6.03125C18.3359 5.71875 18.1719 5.42969 17.9375 5.16406C17.7188 4.89844 17.4219 4.67969 17.0469 4.50781C16.6719 4.32031 16.2109 4.22656 15.6641 4.22656C14.6641 4.22656 13.6953 4.46875 12.7578 4.95312C11.8203 5.4375 10.9453 6.10938 10.1328 6.96875C9.32031 7.8125 8.57031 8.80469 7.88281 9.94531C7.21094 11.0859 6.63281 12.3125 6.14844 13.625C5.66406 14.9375 5.28906 16.3047 5.02344 17.7266C4.75781 19.1484 4.625 20.5547 4.625 21.9453C4.625 23.6797 4.75781 25.2422 5.02344 26.6328C5.30469 28.0078 5.6875 29.1797 6.17188 30.1484C6.65625 31.1172 7.22656 31.8672 7.88281 32.3984C8.55469 32.9141 9.27344 33.1719 10.0391 33.1719C10.8516 33.1719 11.6016 33.0078 12.2891 32.6797C12.9766 32.3359 13.5938 31.8828 14.1406 31.3203C14.6875 30.7578 15.1641 30.1094 15.5703 29.375C15.9766 28.6406 16.3125 27.8828 16.5781 27.1016C16.8594 26.3203 17.0703 25.5469 17.2109 24.7812C17.3516 24 17.4219 23.2812 17.4219 22.625C17.4219 22.375 17.4062 22.0938 17.375 21.7812C17.3438 21.4531 17.3281 21.2031 17.3281 21.0312C17.3281 20.7969 17.3672 20.6172 17.4453 20.4922C17.5391 20.3672 17.6562 20.2734 17.7969 20.2109C17.9375 20.1484 18.1016 20.1094 18.2891 20.0938C18.4766 20.0781 18.6719 20.0703 18.875 20.0703C19.0938 20.0703 19.3438 20.1172 19.625 20.2109C19.9062 20.3047 20.1719 20.4375 20.4219 20.6094C20.6875 20.7656 20.9062 20.9531 21.0781 21.1719C21.2656 21.3906 21.3594 21.6328 21.3594 21.8984C21.2344 23.1953 21.1562 24.4297 21.125 25.6016C21.0938 26.7578 21.0781 27.9375 21.0781 29.1406C21.0781 30.2656 21.0859 31.4375 21.1016 32.6562C21.1172 33.875 21.125 35.2188 21.125 36.6875C21.5781 36.6094 22.0156 36.5547 22.4375 36.5234C22.875 36.4922 23.2891 36.4609 23.6797 36.4297C24.2422 36.3984 24.6016 36.5703 24.7578 36.9453C24.9297 37.3359 24.9531 37.7734 24.8281 38.2578C24.7188 38.7422 24.5 39.1875 24.1719 39.5938C23.8438 40 23.4688 40.2109 23.0469 40.2266C22.6875 40.2266 22.3438 40.2344 22.0156 40.25C21.7031 40.2656 21.375 40.2891 21.0312 40.3203C20.9844 41.2266 20.9141 42.1406 20.8203 43.0625C20.7266 43.9844 20.5703 44.875 20.3516 45.7344C20.1484 46.6094 19.875 47.4219 19.5312 48.1719C19.2031 48.9375 18.7891 49.6016 18.2891 50.1641C17.7891 50.7266 17.1875 51.1719 16.4844 51.5C15.7812 51.8281 14.9609 51.9922 14.0234 51.9922C13.2109 51.9922 12.4688 51.8438 11.7969 51.5469C11.1406 51.2656 10.5781 50.8672 10.1094 50.3516C9.64062 49.8516 9.28125 49.2578 9.03125 48.5703C8.78125 47.8828 8.65625 47.1328 8.65625 46.3203C8.65625 45.1016 8.90625 44.0156 9.40625 43.0625C9.90625 42.125 10.5625 41.2969 11.375 40.5781C12.2031 39.8594 13.1484 39.25 14.2109 38.75C15.2734 38.25 16.3594 37.8281 17.4688 37.4844V37.0156C17.4688 35.9844 17.4531 35.0703 17.4219 34.2734C17.3906 33.4766 17.375 32.7891 17.375 32.2109ZM14.1172 48.2891C14.6484 48.2891 15.1016 48.0938 15.4766 47.7031C15.8672 47.3125 16.1875 46.7812 16.4375 46.1094C16.6875 45.4375 16.8828 44.6641 17.0234 43.7891C17.1641 42.9297 17.2656 42.0156 17.3281 41.0469C15.7344 41.5469 14.5078 42.2344 13.6484 43.1094C12.8047 43.9844 12.3828 45.0234 12.3828 46.2266C12.3828 46.9609 12.5469 47.4844 12.875 47.7969C13.2188 48.125 13.6328 48.2891 14.1172 48.2891ZM35.5625 36.3359C35 36.3359 34.4219 36.25 33.8281 36.0781C33.25 35.9062 32.7188 35.6094 32.2344 35.1875C31.7656 34.7656 31.375 34.2109 31.0625 33.5234C30.7656 32.8203 30.6172 31.9375 30.6172 30.875C30.6172 29.3281 30.8203 27.6953 31.2266 25.9766C31.6484 24.2422 32.25 22.3359 33.0312 20.2578H29.375H28.8359C28.8203 20.7266 28.7891 21.3203 28.7422 22.0391C28.7109 22.7578 28.6484 23.5234 28.5547 24.3359C28.4609 25.1484 28.3359 25.9688 28.1797 26.7969C28.0391 27.625 27.8594 28.3906 27.6406 29.0938C27.4844 29.5938 27.2344 29.8828 26.8906 29.9609C26.5625 30.0391 26.2344 29.9844 25.9062 29.7969C25.5781 29.5938 25.3125 29.3047 25.1094 28.9297C24.9062 28.5547 24.8594 28.1641 24.9688 27.7578C25.0938 27.2734 25.2031 26.6875 25.2969 26C25.3906 25.2969 25.4609 24.5625 25.5078 23.7969C25.5703 23.0156 25.6172 22.2422 25.6484 21.4766C25.6797 20.6953 25.7031 20 25.7188 19.3906C25.125 19.0625 24.6328 18.6484 24.2422 18.1484C23.8516 17.6328 23.6562 17.0234 23.6562 16.3203C23.6562 15.9922 23.7188 15.6953 23.8438 15.4297C23.9844 15.1484 24.1641 14.9141 24.3828 14.7266C24.6016 14.5234 24.8594 14.375 25.1562 14.2812C25.4531 14.1719 25.7578 14.1172 26.0703 14.1172C26.3516 14.1172 26.6406 14.1562 26.9375 14.2344C27.25 14.3125 27.5391 14.4531 27.8047 14.6562C28.0859 14.8594 28.3359 15.125 28.5547 15.4531C28.7734 15.7812 28.9531 16.1875 29.0938 16.6719C29.4844 16.7188 29.8125 16.7578 30.0781 16.7891C30.3594 16.8047 30.5938 16.8203 30.7812 16.8359C30.9688 16.8516 31.125 16.8594 31.25 16.8594C31.375 16.8594 31.5 16.8594 31.625 16.8594H34.1328C34.2734 16.8594 34.4766 16.9453 34.7422 17.1172C35.0234 17.2891 35.2969 17.5156 35.5625 17.7969C35.8281 18.0625 36.0469 18.3516 36.2188 18.6641C36.4062 18.9766 36.4766 19.2734 36.4297 19.5547C36.4297 19.6484 36.375 19.875 36.2656 20.2344C36.1562 20.5938 36.0234 21.0469 35.8672 21.5938C35.7109 22.1406 35.5391 22.7734 35.3516 23.4922C35.1641 24.1953 34.9922 24.9375 34.8359 25.7188C34.6797 26.5 34.5469 27.3125 34.4375 28.1562C34.3281 28.9844 34.2734 29.7969 34.2734 30.5938C34.2734 30.9219 34.3125 31.2422 34.3906 31.5547C34.4688 31.8672 34.5859 32.1484 34.7422 32.3984C34.8984 32.6328 35.0938 32.8203 35.3281 32.9609C35.5781 33.1016 35.8672 33.1719 36.1953 33.1719C36.7422 33.1719 37.2109 33 37.6016 32.6562C37.9922 32.3125 38.3203 31.8828 38.5859 31.3672C38.8516 30.8516 39.0625 30.2969 39.2188 29.7031C39.3906 29.0938 39.5312 28.5234 39.6406 27.9922C39.7344 27.4922 39.8906 27.1328 40.1094 26.9141C40.3281 26.6797 40.5547 26.5625 40.7891 26.5625C40.9766 26.5625 41.1719 26.625 41.375 26.75C41.5781 26.8594 41.7578 27.0078 41.9141 27.1953C42.0859 27.3828 42.2188 27.5938 42.3125 27.8281C42.4219 28.0625 42.4766 28.2969 42.4766 28.5312C42.4766 28.6094 42.4688 28.6719 42.4531 28.7188C42.4375 28.7656 42.4297 28.8125 42.4297 28.8594C42.2109 29.6562 41.9219 30.4922 41.5625 31.3672C41.2188 32.2422 40.7734 33.0469 40.2266 33.7812C39.6797 34.5156 39.0234 35.125 38.2578 35.6094C37.4922 36.0938 36.5938 36.3359 35.5625 36.3359ZM53.4453 33.1719C53.9297 33.1719 54.3438 33 54.6875 32.6562C55.0469 32.3125 55.3516 31.8828 55.6016 31.3672C55.8672 30.8516 56.0781 30.2969 56.2344 29.7031C56.4062 29.0938 56.5469 28.5234 56.6562 27.9922C56.7656 27.4922 56.9219 27.1328 57.125 26.9141C57.3438 26.6797 57.5781 26.5625 57.8281 26.5625C58.0156 26.5625 58.2031 26.625 58.3906 26.75C58.5938 26.8594 58.7734 27.0078 58.9297 27.1953C59.1016 27.3828 59.2344 27.5938 59.3281 27.8281C59.4375 28.0625 59.4922 28.2969 59.4922 28.5312C59.4922 28.5625 59.4922 28.6016 59.4922 28.6484C59.4922 28.6953 59.4766 28.7656 59.4453 28.8594C59.2422 29.6562 58.9609 30.4922 58.6016 31.3672C58.2578 32.2422 57.8125 33.0469 57.2656 33.7812C56.7188 34.5156 56.0547 35.125 55.2734 35.6094C54.5078 36.0938 53.6094 36.3359 52.5781 36.3359C51.7344 36.3359 51 36.1562 50.375 35.7969C49.75 35.4375 49.2578 34.9609 48.8984 34.3672C48.4141 34.9141 47.8281 35.375 47.1406 35.75C46.4688 36.1406 45.6797 36.3359 44.7734 36.3359C43.8359 36.3359 43.0078 36.1484 42.2891 35.7734C41.5859 35.3984 40.9922 34.8906 40.5078 34.25C40.0234 33.5938 39.6562 32.8281 39.4062 31.9531C39.1719 31.0625 39.0547 30.1094 39.0547 29.0938C39.0547 27.0938 39.375 25.2969 40.0156 23.7031C40.6562 22.1094 41.5078 20.7578 42.5703 19.6484C43.6328 18.5234 44.8438 17.6641 46.2031 17.0703C47.5781 16.4766 49 16.1797 50.4688 16.1797C51.125 16.1797 51.6562 16.3594 52.0625 16.7188C52.4688 17.0781 52.6719 17.5703 52.6719 18.1953C52.6719 18.6016 52.625 18.8906 52.5312 19.0625C52.4531 19.2188 52.2969 19.2969 52.0625 19.2969C51.8438 19.2969 51.6172 19.2812 51.3828 19.25C51.1484 19.2188 50.9062 19.2031 50.6562 19.2031C49.75 19.2031 48.8281 19.4062 47.8906 19.8125C46.9531 20.2031 46.1016 20.8125 45.3359 21.6406C44.5859 22.4531 43.9688 23.4922 43.4844 24.7578C43 26.0078 42.7578 27.5 42.7578 29.2344C42.7578 30.5 43 31.4766 43.4844 32.1641C43.9688 32.8359 44.6328 33.1719 45.4766 33.1719C46.1328 33.1719 46.6797 32.9297 47.1172 32.4453C47.5547 31.9453 47.9062 31.3594 48.1719 30.6875V23.2812C48.1719 23.0469 48.1562 22.8516 48.125 22.6953C48.1094 22.5391 48.0859 22.4062 48.0547 22.2969C48.0391 22.1875 48.0234 22.0938 48.0078 22.0156C47.9922 21.9219 47.9844 21.8359 47.9844 21.7578C47.9844 21.5078 48.1016 21.3125 48.3359 21.1719C48.5859 21.0156 48.8828 20.9375 49.2266 20.9375C50.0234 20.9375 50.6562 21.1484 51.125 21.5703C51.5938 21.9766 51.8281 22.4688 51.8281 23.0469V30.9688C51.8281 31.2344 51.8594 31.5 51.9219 31.7656C51.9844 32.0156 52.0781 32.25 52.2031 32.4688C52.3281 32.6719 52.4922 32.8438 52.6953 32.9844C52.9141 33.1094 53.1641 33.1719 53.4453 33.1719ZM56.8906 19.0156C56.8906 18.5625 56.8516 18.2344 56.7734 18.0312C56.7109 17.8281 56.6797 17.6406 56.6797 17.4688C56.6797 17.2344 56.8047 17.0469 57.0547 16.9062C57.3047 16.75 57.6016 16.6719 57.9453 16.6719C58.7422 16.6719 59.3672 16.8828 59.8203 17.3047C60.2891 17.7109 60.5234 18.2031 60.5234 18.7812V31.6953C60.5234 32.1484 60.5938 32.5078 60.7344 32.7734C60.875 33.0391 61.1562 33.1719 61.5781 33.1719C62.1719 33.1719 62.7656 32.9766 63.3594 32.5859C63.9688 32.1797 64.5078 31.6016 64.9766 30.8516C65.4609 30.0859 65.8516 29.1562 66.1484 28.0625C66.4609 26.9688 66.6172 25.7266 66.6172 24.3359C66.6172 23.3672 66.5391 22.5625 66.3828 21.9219C66.2422 21.2812 66.0703 20.7656 65.8672 20.375C65.6641 19.9688 65.4453 19.6641 65.2109 19.4609C64.9922 19.2578 64.8047 19.0938 64.6484 18.9688C64.5234 18.875 64.3828 18.8203 64.2266 18.8047C64.0703 18.7734 63.9922 18.6875 63.9922 18.5469C63.9922 18.3281 64.0469 18.0859 64.1562 17.8203C64.2812 17.5391 64.4375 17.2812 64.625 17.0469C64.8125 16.7969 65.0234 16.5938 65.2578 16.4375C65.4922 16.2656 65.7266 16.1797 65.9609 16.1797C66.4453 16.1797 66.9375 16.4219 67.4375 16.9062C67.9375 17.375 68.3906 18 68.7969 18.7812C69.2188 19.5625 69.5625 20.4531 69.8281 21.4531C70.0938 22.4375 70.2266 23.4453 70.2266 24.4766C70.2266 26.1016 70.0078 27.6328 69.5703 29.0703C69.1328 30.5078 68.5078 31.7656 67.6953 32.8438C66.8984 33.9219 65.9297 34.7734 64.7891 35.3984C63.6484 36.0234 62.375 36.3359 60.9688 36.3359C60.2031 36.3359 59.5547 36.2109 59.0234 35.9609C58.5078 35.7109 58.0938 35.375 57.7812 34.9531C57.4688 34.5312 57.2422 34.0391 57.1016 33.4766C56.9609 32.8984 56.8906 32.2891 56.8906 31.6484V19.0156ZM83.5391 21.0312C83.5391 21.9219 83.3828 22.8359 83.0703 23.7734C82.7734 24.7109 82.3203 25.6016 81.7109 26.4453C81.1172 27.2734 80.375 28.0234 79.4844 28.6953C78.6094 29.3516 77.5938 29.8516 76.4375 30.1953C76.5938 30.6016 76.7969 30.9922 77.0469 31.3672C77.3125 31.7266 77.625 32.0391 77.9844 32.3047C78.3438 32.5703 78.7578 32.7812 79.2266 32.9375C79.7109 33.0938 80.2656 33.1719 80.8906 33.1719C81.8281 33.1719 82.6328 33 83.3047 32.6562C83.9766 32.2969 84.5391 31.8281 84.9922 31.25C85.4609 30.6719 85.8359 30.0234 86.1172 29.3047C86.3984 28.5859 86.6094 27.8594 86.75 27.125C86.8594 26.5938 87.0781 26.2422 87.4062 26.0703C87.75 25.8828 88.0938 25.8359 88.4375 25.9297C88.7969 26.0234 89.1016 26.2266 89.3516 26.5391C89.6172 26.8359 89.7266 27.1953 89.6797 27.6172C89.6172 28.1016 89.5078 28.6562 89.3516 29.2812C89.2109 29.9062 88.9922 30.5391 88.6953 31.1797C88.3984 31.8203 88.0156 32.4531 87.5469 33.0781C87.0938 33.6875 86.5312 34.2344 85.8594 34.7188C85.1875 35.2031 84.3984 35.5938 83.4922 35.8906C82.5859 36.1875 81.5469 36.3359 80.375 36.3359C79.2812 36.3359 78.2188 36.1172 77.1875 35.6797C76.1719 35.2578 75.2656 34.6484 74.4688 33.8516C73.6875 33.0391 73.0547 32.0469 72.5703 30.875C72.1016 29.6875 71.8672 28.3438 71.8672 26.8438C71.8672 25.3281 72.0781 23.9219 72.5 22.625C72.9219 21.3125 73.4766 20.1797 74.1641 19.2266C74.8516 18.2734 75.6328 17.5312 76.5078 17C77.3828 16.4531 78.2812 16.1797 79.2031 16.1797C79.875 16.1797 80.4766 16.2969 81.0078 16.5312C81.5547 16.7656 82.0156 17.1016 82.3906 17.5391C82.7656 17.9609 83.0469 18.4688 83.2344 19.0625C83.4375 19.6562 83.5391 20.3125 83.5391 21.0312ZM75.8047 26.7031C75.8047 26.8438 75.8125 26.9844 75.8281 27.125C75.8438 27.2656 75.8516 27.4141 75.8516 27.5703C76.4453 27.2891 76.9844 26.9297 77.4688 26.4922C77.9531 26.0547 78.3672 25.5547 78.7109 24.9922C79.0547 24.4297 79.3203 23.8203 79.5078 23.1641C79.6953 22.4922 79.7891 21.7969 79.7891 21.0781C79.7891 20.5469 79.6953 20.1328 79.5078 19.8359C79.3359 19.5391 79.0938 19.3906 78.7812 19.3906C78.3906 19.3906 78.0391 19.5234 77.7266 19.7891C77.4297 20.0547 77.1641 20.4062 76.9297 20.8438C76.7109 21.2656 76.5234 21.75 76.3672 22.2969C76.2266 22.8281 76.1094 23.3672 76.0156 23.9141C75.9219 24.4609 75.8594 24.9844 75.8281 25.4844C75.7969 25.9688 75.7891 26.375 75.8047 26.7031ZM104.844 32.3047C104.844 33.3672 104.773 34.2734 104.633 35.0234C104.508 35.7734 104.328 36.3828 104.094 36.8516C103.859 37.3203 103.57 37.6641 103.227 37.8828C102.898 38.1016 102.539 38.2109 102.148 38.2109C101.852 38.2109 101.523 38.1094 101.164 37.9062C100.805 37.7031 100.461 37.4531 100.133 37.1562C99.8203 36.8594 99.5547 36.5547 99.3359 36.2422C99.1328 35.9297 99.0312 35.6562 99.0312 35.4219C99.0312 35.2656 99.0469 35.1641 99.0781 35.1172C99.125 35.0859 99.1797 35.0703 99.2422 35.0703C99.3203 35.0859 99.4062 35.1094 99.5 35.1406C99.6094 35.1719 99.7266 35.1875 99.8516 35.1875C100.289 35.1875 100.602 34.9141 100.789 34.3672C100.992 33.8047 101.094 32.9141 101.094 31.6953V5.1875C99.6094 5.3125 98.1797 5.57813 96.8047 5.98438C95.4297 6.375 94.2188 6.96875 93.1719 7.76562C92.125 8.5625 91.2891 9.60156 90.6641 10.8828C90.0391 12.1484 89.7266 13.7109 89.7266 15.5703C89.7266 16.3984 89.8047 17.1484 89.9609 17.8203C90.1328 18.4766 90.3516 19.0703 90.6172 19.6016C90.8828 20.1328 91.1719 20.6016 91.4844 21.0078C91.8125 21.4141 92.1328 21.7734 92.4453 22.0859C92.7109 22.0078 92.8984 22.0391 93.0078 22.1797C93.1172 22.3203 93.1719 22.5156 93.1719 22.7656C93.1719 23.0781 93.1016 23.4062 92.9609 23.75C92.8359 24.0781 92.6641 24.3828 92.4453 24.6641C92.2266 24.9297 91.9766 25.1562 91.6953 25.3438C91.4297 25.5156 91.1562 25.6016 90.875 25.6016C90.75 25.6016 90.625 25.5859 90.5 25.5547C90.3906 25.5234 90.2734 25.4531 90.1484 25.3438C89.8047 25.0938 89.3906 24.6875 88.9062 24.125C88.4219 23.5469 87.9609 22.8359 87.5234 21.9922C87.0859 21.1484 86.7109 20.1875 86.3984 19.1094C86.0859 18.0156 85.9297 16.8359 85.9297 15.5703C85.9297 13.2578 86.3594 11.2188 87.2188 9.45312C88.0781 7.6875 89.2734 6.21094 90.8047 5.02344C92.3359 3.82031 94.1484 2.91406 96.2422 2.30469C98.3516 1.69531 100.656 1.39062 103.156 1.39062C103.734 1.39062 104.43 1.39844 105.242 1.41406C106.07 1.41406 106.891 1.42187 107.703 1.4375C108.516 1.45313 109.242 1.46875 109.883 1.48438C110.539 1.48438 110.984 1.48438 111.219 1.48438C111.422 1.48438 111.586 1.46875 111.711 1.4375C111.852 1.39062 111.961 1.34375 112.039 1.29688C112.133 1.25 112.203 1.21094 112.25 1.17969C112.297 1.13281 112.336 1.10938 112.367 1.10938C112.445 1.10938 112.516 1.16406 112.578 1.27344C112.656 1.36719 112.719 1.49219 112.766 1.64844C112.828 1.78906 112.875 1.95312 112.906 2.14062C112.938 2.32812 112.953 2.51562 112.953 2.70312C112.953 2.98438 112.914 3.28125 112.836 3.59375C112.758 3.89063 112.641 4.16406 112.484 4.41406C112.328 4.64844 112.133 4.84375 111.898 5C111.664 5.15625 111.391 5.23438 111.078 5.23438C110.906 5.23438 110.586 5.23438 110.117 5.23438C109.664 5.21875 109.141 5.20313 108.547 5.1875C107.953 5.17187 107.328 5.15625 106.672 5.14062C106.016 5.125 105.406 5.10938 104.844 5.09375V32.3047ZM121.156 36.3359C120.594 36.3359 120.016 36.25 119.422 36.0781C118.844 35.9062 118.312 35.6094 117.828 35.1875C117.359 34.7656 116.969 34.2109 116.656 33.5234C116.359 32.8203 116.211 31.9375 116.211 30.875C116.211 29.3281 116.414 27.6953 116.82 25.9766C117.242 24.2422 117.844 22.3359 118.625 20.2578H114.969H114.43C114.414 20.7266 114.383 21.3203 114.336 22.0391C114.305 22.7578 114.242 23.5234 114.148 24.3359C114.055 25.1484 113.93 25.9688 113.773 26.7969C113.633 27.625 113.453 28.3906 113.234 29.0938C113.078 29.5938 112.828 29.8828 112.484 29.9609C112.156 30.0391 111.828 29.9844 111.5 29.7969C111.172 29.5938 110.906 29.3047 110.703 28.9297C110.5 28.5547 110.453 28.1641 110.562 27.7578C110.688 27.2734 110.797 26.6875 110.891 26C110.984 25.2969 111.055 24.5625 111.102 23.7969C111.164 23.0156 111.211 22.2422 111.242 21.4766C111.273 20.6953 111.297 20 111.312 19.3906C110.719 19.0625 110.227 18.6484 109.836 18.1484C109.445 17.6328 109.25 17.0234 109.25 16.3203C109.25 15.9922 109.312 15.6953 109.438 15.4297C109.578 15.1484 109.758 14.9141 109.977 14.7266C110.195 14.5234 110.453 14.375 110.75 14.2812C111.047 14.1719 111.352 14.1172 111.664 14.1172C111.945 14.1172 112.234 14.1562 112.531 14.2344C112.844 14.3125 113.133 14.4531 113.398 14.6562C113.68 14.8594 113.93 15.125 114.148 15.4531C114.367 15.7812 114.547 16.1875 114.688 16.6719C115.078 16.7188 115.406 16.7578 115.672 16.7891C115.953 16.8047 116.188 16.8203 116.375 16.8359C116.562 16.8516 116.719 16.8594 116.844 16.8594C116.969 16.8594 117.094 16.8594 117.219 16.8594H119.727C119.867 16.8594 120.07 16.9453 120.336 17.1172C120.617 17.2891 120.891 17.5156 121.156 17.7969C121.422 18.0625 121.641 18.3516 121.812 18.6641C122 18.9766 122.07 19.2734 122.023 19.5547C122.023 19.6484 121.969 19.875 121.859 20.2344C121.75 20.5938 121.617 21.0469 121.461 21.5938C121.305 22.1406 121.133 22.7734 120.945 23.4922C120.758 24.1953 120.586 24.9375 120.43 25.7188C120.273 26.5 120.141 27.3125 120.031 28.1562C119.922 28.9844 119.867 29.7969 119.867 30.5938C119.867 30.9219 119.906 31.2422 119.984 31.5547C120.062 31.8672 120.18 32.1484 120.336 32.3984C120.492 32.6328 120.688 32.8203 120.922 32.9609C121.172 33.1016 121.461 33.1719 121.789 33.1719C122.336 33.1719 122.805 33 123.195 32.6562C123.586 32.3125 123.914 31.8828 124.18 31.3672C124.445 30.8516 124.656 30.2969 124.812 29.7031C124.984 29.0938 125.125 28.5234 125.234 27.9922C125.328 27.4922 125.484 27.1328 125.703 26.9141C125.922 26.6797 126.148 26.5625 126.383 26.5625C126.57 26.5625 126.766 26.625 126.969 26.75C127.172 26.8594 127.352 27.0078 127.508 27.1953C127.68 27.3828 127.812 27.5938 127.906 27.8281C128.016 28.0625 128.07 28.2969 128.07 28.5312C128.07 28.6094 128.062 28.6719 128.047 28.7188C128.031 28.7656 128.023 28.8125 128.023 28.8594C127.805 29.6562 127.516 30.4922 127.156 31.3672C126.812 32.2422 126.367 33.0469 125.82 33.7812C125.273 34.5156 124.617 35.125 123.852 35.6094C123.086 36.0938 122.188 36.3359 121.156 36.3359ZM139.039 33.1719C139.523 33.1719 139.938 33 140.281 32.6562C140.641 32.3125 140.945 31.8828 141.195 31.3672C141.461 30.8516 141.672 30.2969 141.828 29.7031C142 29.0938 142.141 28.5234 142.25 27.9922C142.359 27.4922 142.516 27.1328 142.719 26.9141C142.938 26.6797 143.172 26.5625 143.422 26.5625C143.609 26.5625 143.797 26.625 143.984 26.75C144.188 26.8594 144.367 27.0078 144.523 27.1953C144.695 27.3828 144.828 27.5938 144.922 27.8281C145.031 28.0625 145.086 28.2969 145.086 28.5312C145.086 28.5625 145.086 28.6016 145.086 28.6484C145.086 28.6953 145.07 28.7656 145.039 28.8594C144.836 29.6562 144.555 30.4922 144.195 31.3672C143.852 32.2422 143.406 33.0469 142.859 33.7812C142.312 34.5156 141.648 35.125 140.867 35.6094C140.102 36.0938 139.203 36.3359 138.172 36.3359C137.328 36.3359 136.594 36.1562 135.969 35.7969C135.344 35.4375 134.852 34.9609 134.492 34.3672C134.008 34.9141 133.422 35.375 132.734 35.75C132.062 36.1406 131.273 36.3359 130.367 36.3359C129.43 36.3359 128.602 36.1484 127.883 35.7734C127.18 35.3984 126.586 34.8906 126.102 34.25C125.617 33.5938 125.25 32.8281 125 31.9531C124.766 31.0625 124.648 30.1094 124.648 29.0938C124.648 27.0938 124.969 25.2969 125.609 23.7031C126.25 22.1094 127.102 20.7578 128.164 19.6484C129.227 18.5234 130.438 17.6641 131.797 17.0703C133.172 16.4766 134.594 16.1797 136.062 16.1797C136.719 16.1797 137.25 16.3594 137.656 16.7188C138.062 17.0781 138.266 17.5703 138.266 18.1953C138.266 18.6016 138.219 18.8906 138.125 19.0625C138.047 19.2188 137.891 19.2969 137.656 19.2969C137.438 19.2969 137.211 19.2812 136.977 19.25C136.742 19.2188 136.5 19.2031 136.25 19.2031C135.344 19.2031 134.422 19.4062 133.484 19.8125C132.547 20.2031 131.695 20.8125 130.93 21.6406C130.18 22.4531 129.562 23.4922 129.078 24.7578C128.594 26.0078 128.352 27.5 128.352 29.2344C128.352 30.5 128.594 31.4766 129.078 32.1641C129.562 32.8359 130.227 33.1719 131.07 33.1719C131.727 33.1719 132.273 32.9297 132.711 32.4453C133.148 31.9453 133.5 31.3594 133.766 30.6875V23.2812C133.766 23.0469 133.75 22.8516 133.719 22.6953C133.703 22.5391 133.68 22.4062 133.648 22.2969C133.633 22.1875 133.617 22.0938 133.602 22.0156C133.586 21.9219 133.578 21.8359 133.578 21.7578C133.578 21.5078 133.695 21.3125 133.93 21.1719C134.18 21.0156 134.477 20.9375 134.82 20.9375C135.617 20.9375 136.25 21.1484 136.719 21.5703C137.188 21.9766 137.422 22.4688 137.422 23.0469V30.9688C137.422 31.2344 137.453 31.5 137.516 31.7656C137.578 32.0156 137.672 32.25 137.797 32.4688C137.922 32.6719 138.086 32.8438 138.289 32.9844C138.508 33.1094 138.758 33.1719 139.039 33.1719ZM150.148 36.3359C149.086 36.3359 148.055 36.1406 147.055 35.75C146.055 35.3594 145.164 34.7812 144.383 34.0156C143.617 33.25 143 32.3047 142.531 31.1797C142.078 30.0547 141.852 28.75 141.852 27.2656C141.852 25.8906 142.047 24.5391 142.438 23.2109C142.828 21.8828 143.367 20.7031 144.055 19.6719C144.742 18.625 145.562 17.7812 146.516 17.1406C147.484 16.5 148.539 16.1797 149.68 16.1797C150.508 16.1797 151.211 16.3516 151.789 16.6953C152.367 17.0234 152.836 17.4297 153.195 17.9141C153.555 18.3828 153.812 18.8906 153.969 19.4375C154.141 19.9844 154.227 20.4688 154.227 20.8906C154.227 21.2031 154.141 21.4844 153.969 21.7344C153.812 21.9844 153.617 22.1953 153.383 22.3672C153.148 22.5391 152.891 22.6719 152.609 22.7656C152.328 22.8438 152.078 22.875 151.859 22.8594C151.641 22.8438 151.461 22.7656 151.32 22.625C151.195 22.4844 151.156 22.2734 151.203 21.9922C151.141 21.7891 151.078 21.5391 151.016 21.2422C150.969 20.9453 150.875 20.6641 150.734 20.3984C150.609 20.1172 150.43 19.8828 150.195 19.6953C149.961 19.4922 149.641 19.3906 149.234 19.3906C148.797 19.3906 148.367 19.6016 147.945 20.0234C147.539 20.4297 147.172 20.9922 146.844 21.7109C146.531 22.4297 146.273 23.2656 146.07 24.2188C145.883 25.1719 145.789 26.1875 145.789 27.2656C145.789 28.2188 145.906 29.0625 146.141 29.7969C146.391 30.5312 146.734 31.1484 147.172 31.6484C147.609 32.1484 148.125 32.5312 148.719 32.7969C149.328 33.0469 149.984 33.1719 150.688 33.1719C151.625 33.1719 152.438 33 153.125 32.6562C153.828 32.2969 154.422 31.8281 154.906 31.25C155.391 30.6719 155.781 30.0234 156.078 29.3047C156.375 28.5859 156.594 27.8594 156.734 27.125C156.844 26.5938 157.062 26.2422 157.391 26.0703C157.734 25.8828 158.078 25.8359 158.422 25.9297C158.781 26.0234 159.086 26.2266 159.336 26.5391C159.602 26.8359 159.711 27.1953 159.664 27.6172C159.602 28.1016 159.484 28.6562 159.312 29.2812C159.156 29.9062 158.922 30.5391 158.609 31.1797C158.297 31.8203 157.898 32.4531 157.414 33.0781C156.945 33.6875 156.367 34.2344 155.68 34.7188C154.992 35.2031 154.188 35.5938 153.266 35.8906C152.359 36.1875 151.32 36.3359 150.148 36.3359ZM167.773 21.0312C167.773 21.9219 167.617 22.8359 167.305 23.7734C167.008 24.7109 166.555 25.6016 165.945 26.4453C165.352 27.2734 164.609 28.0234 163.719 28.6953C162.844 29.3516 161.828 29.8516 160.672 30.1953C160.828 30.6016 161.031 30.9922 161.281 31.3672C161.547 31.7266 161.859 32.0391 162.219 32.3047C162.578 32.5703 162.992 32.7812 163.461 32.9375C163.945 33.0938 164.5 33.1719 165.125 33.1719C166.062 33.1719 166.867 33 167.539 32.6562C168.211 32.2969 168.773 31.8281 169.227 31.25C169.695 30.6719 170.07 30.0234 170.352 29.3047C170.633 28.5859 170.844 27.8594 170.984 27.125C171.094 26.5938 171.312 26.2422 171.641 26.0703C171.984 25.8828 172.328 25.8359 172.672 25.9297C173.031 26.0234 173.336 26.2266 173.586 26.5391C173.852 26.8359 173.961 27.1953 173.914 27.6172C173.852 28.1016 173.742 28.6562 173.586 29.2812C173.445 29.9062 173.227 30.5391 172.93 31.1797C172.633 31.8203 172.25 32.4531 171.781 33.0781C171.328 33.6875 170.766 34.2344 170.094 34.7188C169.422 35.2031 168.633 35.5938 167.727 35.8906C166.82 36.1875 165.781 36.3359 164.609 36.3359C163.516 36.3359 162.453 36.1172 161.422 35.6797C160.406 35.2578 159.5 34.6484 158.703 33.8516C157.922 33.0391 157.289 32.0469 156.805 30.875C156.336 29.6875 156.102 28.3438 156.102 26.8438C156.102 25.3281 156.312 23.9219 156.734 22.625C157.156 21.3125 157.711 20.1797 158.398 19.2266C159.086 18.2734 159.867 17.5312 160.742 17C161.617 16.4531 162.516 16.1797 163.438 16.1797C164.109 16.1797 164.711 16.2969 165.242 16.5312C165.789 16.7656 166.25 17.1016 166.625 17.5391C167 17.9609 167.281 18.4688 167.469 19.0625C167.672 19.6562 167.773 20.3125 167.773 21.0312ZM160.039 26.7031C160.039 26.8438 160.047 26.9844 160.062 27.125C160.078 27.2656 160.086 27.4141 160.086 27.5703C160.68 27.2891 161.219 26.9297 161.703 26.4922C162.188 26.0547 162.602 25.5547 162.945 24.9922C163.289 24.4297 163.555 23.8203 163.742 23.1641C163.93 22.4922 164.023 21.7969 164.023 21.0781C164.023 20.5469 163.93 20.1328 163.742 19.8359C163.57 19.5391 163.328 19.3906 163.016 19.3906C162.625 19.3906 162.273 19.5234 161.961 19.7891C161.664 20.0547 161.398 20.4062 161.164 20.8438C160.945 21.2656 160.758 21.75 160.602 22.2969C160.461 22.8281 160.344 23.3672 160.25 23.9141C160.156 24.4609 160.094 24.9844 160.062 25.4844C160.031 25.9688 160.023 26.375 160.039 26.7031Z" fill="black"/>
</svg>
